# xmcd
#
# Track frame offsets:
#	150
#	13760
#	26607
#	37612
#	49205
#	62040
#	74037
#	87122
#	99330
#	110875
#	122552
#	135787
#
# Disc length: 1969 seconds
#
# Revision: 1
# Processed by: cddbd v1.4PL0 Copyright (c) Steve Scherf et al.
# Submitted via: audiograbber 1.82.02
#
DISCID=9907af0c
DTITLE=Celia Cruz - Con La Sonora Matancera
DYEAR=1900
DGENRE=Salsa
TTITLE0=Cao, Cao Mani Picao
TTITLE1=Ven Bernabe
TTITLE2=El Que Siemra Su Maiz
TTITLE3=La Guagua
TTITLE4=Virgen De La Macarena
TTITLE5=Burundanga
TTITLE6=Yerbero Moderno
TTITLE7=La Sopa En Botella
TTITLE8=Sabroso Buaguanco
TTITLE9=Rico Changui
TTITLE10=Saoco
TTITLE11=Caramelos
EXTD=Celia Cruz\nThe international Queen of Salsa was born in the City of Havan
EXTD=a, Cuba on a 21st of October. She began her life in the arts very early on
EXTD=as a participant in music radio contest, where one presetation was enough
EXTD=to grant her first prizes. Yet, Celia spent the next few years devoted to
EXTD=the study and refinement of her already vocal skills....
EXTT0=
EXTT1=
EXTT2=
EXTT3=
EXTT4=
EXTT5=
EXTT6=
EXTT7=
EXTT8=
EXTT9=
EXTT10=
EXTT11=
PLAYORDER=
